/home/minht/3dpredictsim_tutorial/predsim_tutorial/Results/Case_17/GRF.mot
version=1
nRows=17
nColumns=19
inDegrees=yes
endheader 
time	r_ground_force_vx	r_ground_force_vy	r_ground_force_vz	r_ground_force_px	r_ground_force_py	r_ground_force_pz	l_ground_force_vx	l_ground_force_vy	l_ground_force_vz	l_ground_force_px	l_ground_force_py	l_ground_force_pz	r_ground_torque_x	r_ground_torque_y	r_ground_torque_z	l_ground_torque_x	l_ground_torque_y	l_ground_torque_z	
          0.00000000	        -37.06833138	        113.75626427	        108.77000766	          0.05242867	          0.00000000	          0.08484235	        -21.37712892	        700.41715645	          3.25561430	         -0.16465656	          0.00000000	         -0.06989137	          0.00000000	          0.48623881	          0.00000000	          0.00000000	         -7.64170075	          0.00000000	
          0.03203982	          0.13380670	        676.37176968	         12.15371226	          0.03318281	          0.00000000	          0.06126030	        -40.70946992	        576.42087111	        -18.39342967	         -0.15670252	          0.00000000	         -0.06996780	          0.00000000	         -3.99292106	          0.00000000	          0.00000000	         -4.56706330	          0.00000000	
          0.06407965	         -7.34610601	        905.67522319	         26.81847153	          0.03458034	          0.00000000	          0.05286011	        -42.57193134	        381.47500171	        -39.78048641	         -0.13955708	          0.00000000	         -0.07393862	          0.00000000	         -1.69825482	          0.00000000	          0.00000000	         -1.59321057	          0.00000000	
          0.09611947	         -6.48121402	        895.70260499	         19.54769141	          0.04146370	          0.00000000	          0.05138974	        -49.59789597	        241.48542236	        -42.02034027	         -0.11878167	          0.00000000	         -0.08053675	          0.00000000	         -3.23190107	          0.00000000	          0.00000000	         -0.15899027	          0.00000000	
          0.12815929	         -5.30484186	        865.41382439	         12.62018694	          0.04764074	          0.00000000	          0.05178322	        -35.88055304	        166.45197975	        -44.43934507	         -0.11247375	          0.00000000	         -0.08010370	          0.00000000	         -2.52647724	          0.00000000	          0.00000000	          0.18109281	          0.00000000	
          0.16019912	          0.02499110	        861.24714563	          3.67153593	          0.05204801	          0.00000000	          0.05302491	        -30.27256713	        106.89733500	        -35.70750010	         -0.10660805	          0.00000000	         -0.07956317	          0.00000000	         -0.41112475	          0.00000000	          0.00000000	          0.32957853	          0.00000000	
          0.19223894	          8.40403185	        864.24721653	         -7.00196581	          0.05564550	          0.00000000	          0.05462945	        -32.43183629	         48.36987896	         -5.12210756	         -0.09945941	          0.00000000	         -0.07675456	          0.00000000	          1.58357060	          0.00000000	          0.00000000	          0.17585642	          0.00000000	
          0.22427876	         14.40059864	        863.03069039	        -18.33542728	          0.05904507	          0.00000000	          0.05639969	          0.00000000	          0.00000000	          0.00000000	          0.00000000	          0.00000000	          0.00000000	          0.00000000	          2.86912353	          0.00000000	          0.00000000	          0.00000000	          0.00000000	
          0.25631859	         16.51510560	        867.11546783	        -25.52998355	          0.06162480	          0.00000000	          0.05810593	          0.00000000	          0.00000000	          0.00000000	          0.00000000	          0.00000000	          0.00000000	          0.00000000	          4.34624126	          0.00000000	          0.00000000	          0.00000000	          0.00000000	
          0.28835841	         19.85633390	        872.32313755	        -26.76978986	          0.06364121	          0.00000000	          0.05943700	          0.00000000	          0.00000000	          0.00000000	          0.00000000	          0.00000000	          0.00000000	          0.00000000	          5.79807506	          0.00000000	          0.00000000	          0.00000000	          0.00000000	
          0.32039823	         20.16516983	        876.52123336	        -25.49150713	          0.06573894	          0.00000000	          0.06039714	          0.00000000	          0.00000000	          0.00000000	          0.00000000	          0.00000000	          0.00000000	          0.00000000	          6.98954557	          0.00000000	          0.00000000	          0.00000000	          0.00000000	
          0.35243806	         21.13661793	        879.68940704	        -23.63785971	          0.06784360	          0.00000000	          0.06095968	          0.00000000	          0.00000000	          0.00000000	          0.00000000	          0.00000000	          0.00000000	          0.00000000	          7.86343582	          0.00000000	          0.00000000	          0.00000000	          0.00000000	
          0.38447788	         20.82458969	        881.90280155	        -22.08547860	          0.07000418	          0.00000000	          0.06119020	          0.00000000	          0.00000000	          0.00000000	          0.00000000	          0.00000000	          0.00000000	          0.00000000	          8.44537026	          0.00000000	          0.00000000	          0.00000000	          0.00000000	
          0.41651771	         22.07677615	        884.30662993	        -21.08434200	          0.07216742	          0.00000000	          0.06116319	          0.00000000	          0.00000000	          0.00000000	          0.00000000	          0.00000000	          0.00000000	          0.00000000	          8.65947872	          0.00000000	          0.00000000	          0.00000000	          0.00000000	
          0.44855753	         23.11633727	        892.07897537	        -21.12806557	          0.07416440	          0.00000000	          0.06096719	          0.00000000	          0.00000000	          0.00000000	          0.00000000	          0.00000000	          0.00000000	          0.00000000	          8.69586037	          0.00000000	          0.00000000	          0.00000000	          0.00000000	
          0.48059735	         26.10294036	        906.39870690	        -20.77015619	          0.07577946	          0.00000000	          0.06072511	          0.00000000	          0.00000000	          0.00000000	          0.00000000	          0.00000000	          0.00000000	          0.00000000	          8.69930846	          0.00000000	          0.00000000	          0.00000000	          0.00000000	
          0.51263718	         29.75047615	        925.26480339	        -20.72825557	          0.07729857	          0.00000000	          0.06070605	          0.00000000	          0.00000000	          0.00000000	          0.00000000	          0.00000000	          0.00000000	          0.00000000	          8.75766465	          0.00000000	          0.00000000	          0.00000000	          0.00000000	
